<?xml version="1.0" encoding="iso-8859-1"?>
<!-- Generator: Adobe Illustrator 28.5.0, SVG Export Plug-In . SVG Version: 9.03 Build 54727)  -->
<svg version="1.1" id="Capa_1" xmlns="http://www.w3.org/2000/svg" xmlns:xlink="http://www.w3.org/1999/xlink" x="0px" y="0px"
	 viewBox="0 0 342.9 171.26" style="enable-background:new 0 0 342.9 171.26;" xml:space="preserve">
<g>
	<path style="fill:#E5242A;" d="M36.64,135.1c0.88,0,1.54,0.47,2.16,1.01c1.24,1.09,2.16,2.46,3.02,3.88
		c1.25,2.04,2.29,4.19,3.2,6.41c0.12,0.28,0.21,0.58,0.26,0.88c0.12,0.73-0.11,1.31-0.81,1.55c-0.74,0.25-1.09-0.27-1.33-0.88
		c-1.07-2.73-2.31-5.36-3.89-7.81c-0.5-0.77-1.04-1.5-1.77-2.07c-0.55-0.43-1.07-0.44-1.63-0.02c-0.77,0.57-1.32,1.33-1.84,2.13
		c-1.54,2.37-2.75,4.91-3.79,7.55c-0.27,0.68-0.53,1.39-1.45,1.11c-0.72-0.23-1.03-1.1-0.66-2.02c1.36-3.45,2.98-6.75,5.32-9.61
		C34.28,136.15,35.23,135.22,36.64,135.1L36.64,135.1z M13.93,143.56c0-0.99-0.01-1.99,0-2.98c0.01-0.68,0.08-1.37,0.95-1.38
		c0.87,0,0.95,0.66,0.95,1.36c0,1.8,0.01,3.6-0.01,5.4c0,0.49,0.11,0.71,0.61,0.78c2.13,0.3,4.21,0.18,6.17-0.82
		c2.24-1.15,3.61-4.51,0.75-6.95c-1.61-1.38-3.52-1.71-5.48-1.88c-1.64-0.14-3.26,0.05-4.84,0.52c-0.56,0.16-1.11,0.26-1.34-0.45
		c-0.22-0.67,0.15-1.15,0.73-1.4c1.25-0.55,2.59-0.64,3.93-0.67c2.43-0.06,4.81,0.24,7.03,1.31c2.02,0.97,3.49,2.47,3.86,4.87
		c0.41,2.65-1.06,5.3-3.63,6.5c-2.61,1.22-5.34,1.35-8.12,0.86c-1.1-0.2-1.48-0.74-1.56-1.92c0-0.06,0-0.13,0-0.19V143.56
		L13.93,143.56z"/>
	<path style="fill:#E5242A;" d="M52.04,148.9c-0.73-0.02-1.3-0.39-1.83-0.87c-0.98-0.88-1.72-1.97-2.41-3.1
		c-1.43-2.37-2.58-4.88-3.55-7.48c-0.16-0.44-0.33-0.88-0.2-1.36c0.14-0.5,0.39-0.91,0.95-0.97c0.55-0.06,0.8,0.31,0.97,0.78
		c0.6,1.65,1.26,3.28,2.02,4.86c0.75,1.58,1.53,3.16,2.63,4.51c1.06,1.3,1.77,1.33,2.81,0.03c1.68-2.09,2.73-4.57,3.78-7.03
		c0.34-0.79,0.61-1.61,0.94-2.41c0.18-0.45,0.46-0.82,1-0.73c0.54,0.09,0.81,0.48,0.91,1.01c0.06,0.34,0.04,0.68-0.08,1.01
		c-1.25,3.36-2.72,6.61-4.82,9.5c-0.45,0.62-0.96,1.18-1.57,1.65C53.14,148.65,52.64,148.91,52.04,148.9L52.04,148.9z"/>
	<path style="fill:#E5242A;" d="M64.56,142.12c0,1.77,0.01,3.53,0,5.3c0,1.02-0.37,1.49-1.08,1.47c-0.69-0.02-1.08-0.54-1.08-1.51
		c0-3.56,0-7.13,0-10.69c0-0.98,0.39-1.51,1.07-1.53c0.7-0.02,1.1,0.52,1.11,1.57C64.57,138.53,64.56,140.33,64.56,142.12
		L64.56,142.12z"/>
	<path style="fill:#E5242A;" d="M69.99,144.3c0,0.25,0.04,0.49,0.08,0.7c0.31,1.19,1.35,2.01,2.58,2.01c1.82,0,2.87-1.48,2.87-3.65
		c0-1.89-1-3.51-2.81-3.51c-1.17,0-2.26,0.84-2.6,2.13c-0.06,0.21-0.12,0.47-0.12,0.7V144.3L69.99,144.3z M68.29,141.78
		c0-1.21-0.04-2.19-0.08-3.08h1.54l0.08,1.62h0.04c0.7-1.15,1.82-1.84,3.36-1.84c2.28,0,4,1.93,4,4.8c0,3.4-2.07,5.08-4.3,5.08
		c-1.25,0-2.34-0.55-2.91-1.48h-0.04v5.13h-1.7V141.78L68.29,141.78z"/>
	<polygon style="fill:#E5242A;" points="79.39,148.15 81.11,148.15 81.11,134.28 79.39,134.28 79.39,148.15 	"/>
	<path style="fill:#E5242A;" d="M88.98,143.32c-1.87-0.04-4,0.29-4,2.13c0,1.11,0.74,1.64,1.62,1.64c1.23,0,2.01-0.78,2.28-1.58
		c0.06-0.18,0.1-0.37,0.1-0.55V143.32L88.98,143.32z M89.23,148.15l-0.14-1.19h-0.06c-0.53,0.74-1.54,1.41-2.89,1.41
		c-1.91,0-2.89-1.35-2.89-2.71c0-2.28,2.03-3.53,5.68-3.51v-0.2c0-0.78-0.21-2.19-2.15-2.19c-0.88,0-1.8,0.27-2.46,0.7l-0.39-1.13
		c0.78-0.51,1.91-0.84,3.1-0.84c2.89,0,3.59,1.97,3.59,3.87v3.53c0,0.82,0.04,1.62,0.16,2.26H89.23L89.23,148.15z"/>
	<path style="fill:#E5242A;" d="M95.4,135.98v2.71h2.46V140H95.4v5.1c0,1.17,0.33,1.84,1.29,1.84c0.45,0,0.78-0.06,1-0.12l0.08,1.29
		c-0.33,0.14-0.86,0.23-1.52,0.23c-0.8,0-1.44-0.25-1.85-0.72c-0.49-0.51-0.66-1.35-0.66-2.46V140h-1.46v-1.31h1.46v-2.26
		L95.4,135.98L95.4,135.98z"/>
	<path style="fill:#E5242A;" d="M104.77,143.32c-1.87-0.04-4,0.29-4,2.13c0,1.11,0.74,1.64,1.62,1.64c1.23,0,2.01-0.78,2.28-1.58
		c0.06-0.18,0.1-0.37,0.1-0.55V143.32L104.77,143.32z M105.03,148.15l-0.14-1.19h-0.06c-0.53,0.74-1.54,1.41-2.89,1.41
		c-1.91,0-2.89-1.35-2.89-2.71c0-2.28,2.03-3.53,5.68-3.51v-0.2c0-0.78-0.21-2.19-2.15-2.19c-0.88,0-1.8,0.27-2.46,0.7l-0.39-1.13
		c0.78-0.51,1.91-0.84,3.1-0.84c2.89,0,3.59,1.97,3.59,3.87v3.53c0,0.82,0.04,1.62,0.16,2.26H105.03L105.03,148.15z"/>
	<path style="fill:#E5242A;" d="M61.85,133.02c-0.23,0.25-0.63,0.27-0.88,0.04c-0.25-0.23-0.27-0.63-0.04-0.88
		c0.01-0.01,3.75-4.1,10.54-8.47c1.73-1.11,3.59-2.24,5.52-3.31c1.93-1.07,3.93-2.07,5.95-2.92l0.81-0.35c1.73-0.74,3.41-1.47,5-1.5
		c2.25-0.05,4.72,0.66,6.89,1.53c2.14,0.86,3.99,1.88,5.03,2.48l0,0c0.13,0.08,0.27,0.17,0.4,0.28c0-0.01-0.01-0.03-0.01-0.04
		c-0.03-0.16-0.06-0.28-0.08-0.39c-0.01-0.08-0.01-0.17,0-0.27c0.03-0.26,0.16-0.7,0.48-1.09c0.32-0.38,0.82-0.73,1.59-0.83
		c0.29-0.04,0.62-0.04,0.99,0c0.89,0.1,1.78,0.06,2.62,0.02c0.88-0.04,1.71-0.08,2.48,0.03l0.05,0.01c0.54,0.07,2.31,0.31,2.02,2.46
		l0,0.02c-0.07,0.41-0.24,1.29-0.44,2.27c-0.26,1.34-0.57,2.87-0.67,3.55c0,0.01,0,0.02,0,0.03c0,0.01,0.01,0.02,0.01,0.02
		c0.24,0.18,0.63,0.44,1.09,0.76c2.7,1.84,7.93,5.41,7.96,8.78c0,0.21-0.01,0.4-0.03,0.6c-0.2,1.61-1.23,2.62-2.63,3.23
		c-1.29,0.56-2.89,0.76-4.4,0.77c-0.67,0-1.32-0.03-1.92-0.09c0.09,1.33,0.46,4.23,3.55,8.34l0.01,0.01
		c1.65,2.3,2.42,4.57,2.33,6.77c-0.09,2.23-1.06,4.37-2.88,6.37l-0.03,0.03c-1.79,1.71-3.86,2.96-6.35,3.66
		c-2.47,0.7-5.35,0.85-8.8,0.39c-0.23-0.03-0.47-0.05-0.7-0.06c-0.22-0.01-0.45,0-0.66,0.01c-0.35,0.06-0.76,0.15-1.22,0.25
		c-2.55,0.56-6.71,1.48-13.68-0.36c-0.39,0.07-1.06,0.19-1.88,0.28c-0.94,0.11-2.13,0.2-3.43,0.2c-1.11-0.01-2.34-0.18-3.6-0.5
		c-2.37-0.62-4.85-1.8-6.73-3.56c-1.92-1.79-3.24-4.18-3.21-7.16c0.01-0.86,0.12-1.77,0.37-2.73c0.09-0.33,0.42-0.53,0.76-0.45
		c0.33,0.09,0.53,0.42,0.45,0.76c-0.22,0.86-0.33,1.66-0.33,2.42c-0.02,2.59,1.13,4.67,2.82,6.24c1.73,1.61,4.01,2.7,6.2,3.27
		c1.16,0.3,2.29,0.46,3.3,0.46c1.23,0.01,2.36-0.08,3.28-0.19c0.93-0.11,1.61-0.23,1.94-0.3l0.14-0.03l0.13,0.04
		c6.77,1.81,10.78,0.93,13.23,0.39c0.49-0.11,0.93-0.2,1.32-0.27l0.04,0c0.28-0.03,0.56-0.03,0.84-0.02
		c0.28,0.01,0.55,0.04,0.82,0.07c3.27,0.44,5.99,0.29,8.3-0.36c2.28-0.64,4.18-1.79,5.83-3.35c1.6-1.78,2.46-3.64,2.54-5.56
		c0.08-1.92-0.61-3.92-2.1-6l0,0c-3.54-4.71-3.73-7.99-3.81-9.28c-0.01-0.12-0.01-0.23-0.02-0.28c-0.01-0.1,0-0.2,0.03-0.29v0
		c0.04-0.14,0.13-0.27,0.24-0.36c0.11-0.09,0.25-0.15,0.4-0.16c0.08-0.01,0.16,0,0.23,0.01c0.68,0.08,1.47,0.14,2.28,0.13
		c1.36-0.01,2.79-0.18,3.91-0.67c1.01-0.44,1.75-1.15,1.89-2.24c0.02-0.14,0.03-0.28,0.02-0.43c-0.02-2.71-4.9-6.04-7.42-7.76
		c-0.47-0.32-0.86-0.59-1.16-0.81l-0.02-0.01c-0.18-0.15-0.31-0.34-0.39-0.54c-0.08-0.21-0.1-0.43-0.07-0.66
		c0.12-0.78,0.42-2.27,0.68-3.59c0.2-1,0.37-1.89,0.43-2.24c0.11-0.9-0.71-1.01-0.96-1.05c-0.06-0.01,0,0-0.06-0.01
		c-0.67-0.1-1.43-0.06-2.25-0.02c-0.9,0.04-1.84,0.09-2.82-0.03c-0.27-0.03-0.49-0.03-0.68,0c-0.4,0.05-0.65,0.22-0.8,0.4
		c-0.14,0.17-0.19,0.34-0.2,0.43c0.01,0.05,0.03,0.15,0.06,0.26c0.14,0.63,0.35,1.61-0.12,1.96c-0.53,0.39-1.08-0.05-1.62-0.49
		c-0.18-0.15-0.37-0.29-0.48-0.36h0c-1.01-0.58-2.8-1.57-4.87-2.4c-2.04-0.82-4.35-1.48-6.4-1.44c-1.34,0.03-2.92,0.71-4.53,1.4
		c-0.16,0.07-0.32,0.14-0.82,0.35c-1.96,0.83-3.93,1.81-5.83,2.86c-1.9,1.05-3.74,2.17-5.45,3.27
		C65.49,129.03,61.86,133.01,61.85,133.02L61.85,133.02z M101.36,120.32c-0.02,0.18-0.1,0.36,0.06,0.24
		C101.51,120.5,101.45,120.42,101.36,120.32L101.36,120.32z M102.21,119.32L102.21,119.32
		C102.21,119.32,102.21,119.31,102.21,119.32L102.21,119.32z M109.19,117.35C109.19,117.35,109.18,117.35,109.19,117.35
		L109.19,117.35L109.19,117.35z"/>
	<path style="fill-rule:evenodd;clip-rule:evenodd;fill:#E83473;" d="M284.24,81.99c-2.61,1.35-5.32,2.75-8.65,4.46
		c-3.85,1.99-5.98,8.44-3.56,11.74c0.07,0.09,0.14,0.19,0.21,0.28c2.96-4.07,5.31-7.3,8.16-11.21
		C281.65,85.55,282.95,83.76,284.24,81.99L284.24,81.99z"/>
	<path style="fill-rule:evenodd;clip-rule:evenodd;fill:#45BCCE;" d="M284.22,114.87c-4.41-6.03-7.84-10.73-11.98-16.39
		c-0.75,1.03-1.54,2.12-2.39,3.29c-2.42,3.32,0.27,9.85,3.55,11.51c5.88,2.96,9.8,4.94,15.42,7.78
		C287.24,118.95,285.7,116.89,284.22,114.87L284.22,114.87z"/>
	<path style="fill-rule:evenodd;clip-rule:evenodd;fill:#E83473;" d="M312.25,132.86c-7.1-3.58-14.02-7.07-20.75-10.46
		c-0.94-0.48-1.83-0.92-2.68-1.35c3.37,4.46,6.89,9.06,10.23,13.64c2.95,4.03,7.74,4.06,11.06,0.48
		C310.83,134.39,311.55,133.62,312.25,132.86L312.25,132.86z"/>
	<path style="fill-rule:evenodd;clip-rule:evenodd;fill:#45BCCE;" d="M324.66,119.48c-3.83,4.13-7.95,8.58-12.41,13.38
		c0.69,0.35,1.38,0.69,2.07,1.04c3.96,2,8.21,0.2,9.34-3.86c1.34-4.79,2.61-9.32,3.81-13.6
		C326.55,117.44,325.61,118.45,324.66,119.48L324.66,119.48z"/>
	<path style="fill-rule:evenodd;clip-rule:evenodd;fill:#E83473;" d="M329.54,109.07c-0.67,2.38-1.35,4.84-2.07,7.38
		c3.02-3.26,5.86-6.33,8.55-9.22c1.93-2.08,2.57-4.72,0.21-7.37c-0.45-0.5-0.9-1.01-1.34-1.51c-0.57-0.64-1.17-1.32-1.79-2.01
		C331.98,100.33,330.8,104.56,329.54,109.07L329.54,109.07z"/>
	<path style="fill-rule:evenodd;clip-rule:evenodd;fill:#45BCCE;" d="M323.55,85.6c2.81,3.15,6.4,7.2,9.55,10.73
		c0.34-1.2,0.67-2.38,0.99-3.54c0.66-2.34-0.03-4.68-2.97-5.85c-0.64-0.26-1.29-0.52-1.93-0.77c-2.49-1-5.25-2.1-7.99-3.2
		C322.02,83.88,322.81,84.77,323.55,85.6L323.55,85.6z"/>
	<path style="fill-rule:evenodd;clip-rule:evenodd;fill:#E83473;" d="M312.76,79.58c2.58,1.03,5.5,2.21,8.45,3.39
		c-2.79-3.13-5.86-6.59-8.3-9.34c-0.41-0.46-0.81-0.91-1.22-1.37c-2.04-2.29-4.57-2.07-6.93-0.86c-1.75,0.9-3.56,1.84-5.41,2.8
		C303.69,75.94,308.43,77.84,312.76,79.58L312.76,79.58z"/>
	<path style="fill-rule:evenodd;clip-rule:evenodd;fill:#211B45;" d="M321.21,82.96c-2.94-1.18-5.87-2.35-8.45-3.39
		c-4.33-1.74-9.07-3.64-13.42-5.38c-2.65,1.37-5.42,2.8-8.29,4.28c-2.42,1.25-4.58,2.37-6.8,3.51c-1.29,1.77-2.59,3.56-3.84,5.28
		c-2.85,3.91-5.2,7.14-8.16,11.21c4.14,5.66,7.57,10.36,11.98,16.39c1.48,2.02,3.02,4.08,4.6,6.18c0.85,0.43,1.74,0.88,2.68,1.35
		c6.73,3.39,13.64,6.88,20.75,10.46c4.45-4.8,8.58-9.25,12.41-13.38c0.95-1.03,1.89-2.04,2.81-3.03c0.71-2.55,1.4-5,2.07-7.38
		c1.26-4.5,2.45-8.74,3.56-12.73c-3.14-3.54-6.74-7.58-9.55-10.73C322.81,84.77,322.02,83.88,321.21,82.96L321.21,82.96z"/>
	<path style="fill-rule:evenodd;clip-rule:evenodd;fill:#45BCCE;" d="M291.05,78.48c2.88-1.49,5.64-2.91,8.29-4.28
		c-0.91-0.36-1.8-0.72-2.67-1.07c-0.23-0.09-0.46-0.18-0.68-0.27c-2.56-1.02-4.48-0.85-5.82,0.99c-0.18,0.24-0.36,0.49-0.54,0.74
		c-1.61,2.22-3.49,4.79-5.39,7.41C286.46,80.84,288.62,79.73,291.05,78.48L291.05,78.48z"/>
	<path style="fill:#211B45;" d="M269.12,166v-13.69c0-0.14,0.11-0.25,0.25-0.25c0.42,0,0.97-0.07,1.12,0.1l9.02,9.97v-9.8
		c0-0.14,0.11-0.25,0.25-0.25h1.43c0.14,0,0.25,0.11,0.25,0.25V166c0,0.35-0.66,0.3-0.77,0.16l-9.58-10.55V166
		c0,0.14-0.11,0.25-0.25,0.25h-1.47C269.24,166.25,269.12,166.13,269.12,166L269.12,166z M336.22,152.07h1.43
		c0.14,0,0.25,0.11,0.25,0.25V166c0,0.14-0.11,0.25-0.25,0.25h-1.43c-0.14,0-0.25-0.11-0.25-0.25v-13.67
		C335.97,152.18,336.08,152.07,336.22,152.07L336.22,152.07z M319.84,152.07h1.43c0.14,0,0.25,0.11,0.25,0.25
		c0,0.77-0.05,8.99,0.03,9.55c0.18,1.33,0.99,2.02,2.28,2.32c0.46,0.11,0.75,0.09,1.2,0.09v0c1.34,0,2.47-0.81,2.84-2.14
		c0.12-0.45,0.16-1.69,0.16-2.31v-7.51c0-0.14,0.11-0.25,0.25-0.25h1.43c0.14,0,0.25,0.11,0.25,0.25v7.51
		c0,1.48-0.13,3.25-1.01,4.41c-0.93,1.23-2.29,1.85-3.85,1.85v0c-1.32,0-2.37-0.09-3.51-0.83c-2.05-1.32-2-3.11-2-5.42v-7.51
		C319.58,152.18,319.7,152.07,319.84,152.07L319.84,152.07z M307.29,151.83c4.1,0,7.27,3.07,7.27,7.16c0,1.97-0.68,3.67-2.06,5.06
		l1.72,1.73c0.16,0.16,0.04,0.43-0.18,0.43l-1.47,0c-0.08,0-0.15-0.03-0.19-0.09l-1.08-1.08c-1.94,1.27-4.57,1.46-6.69,0.6
		c-2.65-1.07-4.41-3.65-4.41-6.58C300.19,155.08,303.28,151.83,307.29,151.83L307.29,151.83z M307.44,160.57l1.47,0
		c0.08,0,0.15,0.03,0.19,0.09l2.11,2.11c2.26-2.32,2.02-6.59-1.18-8.42l0,0c-3.54-2.03-7.98,0.43-7.98,4.7
		c0,4.19,4.41,6.58,7.91,4.66l-2.7-2.71C307.11,160.84,307.22,160.57,307.44,160.57L307.44,160.57z M287.75,152.07h7.22
		c0.14,0,0.25,0.11,0.25,0.25v1.33c0,0.14-0.11,0.25-0.25,0.25h-5.54v3.78h5.48c0.14,0,0.25,0.11,0.25,0.25v1.33
		c0,0.14-0.11,0.25-0.25,0.25h-5.48v4.88h5.48c0.14,0,0.25,0.11,0.25,0.25V166c0,0.14-0.11,0.25-0.25,0.25h-7.16
		c-0.14,0-0.25-0.11-0.25-0.25v-13.67C287.49,152.18,287.61,152.07,287.75,152.07L287.75,152.07z"/>
	<path style="fill-rule:evenodd;clip-rule:evenodd;fill:#D51C20;" d="M34.54,86.43c-0.52,0.15-0.76,0.64-0.62,1.09
		c0.14,0.42,0.59,0.52,0.99,0.4c4.34-1.31,8.1,0.47,8.13,2.86c-0.02,1.86-0.79,3.31-4.42,3.49c-0.51,0.03-1.29-0.05-1.91-0.07
		c-0.41-0.02-0.54-0.29-0.54-0.78v-3.8c0-0.4-0.38-0.9-0.72-0.9c-0.36,0-0.74,0.5-0.74,0.9v4.76c0.05,0.78,0.62,1.24,1.28,1.28
		l3.35,0.03c2.9-0.03,5.28-2.21,5.28-4.91C44.64,87.95,41.25,85.06,34.54,86.43L34.54,86.43z M61.83,95.7L61.83,95.7L61.83,95.7
		c0.04,0,0.08,0,0.11,0l0,0c0.04,0,0.08-0.01,0.11-0.01l0,0c0.04-0.01,0.08-0.01,0.11-0.02l0,0c0.04-0.01,0.08-0.02,0.11-0.03v0
		c0.04-0.01,0.08-0.02,0.11-0.03l0,0c0.04-0.01,0.08-0.02,0.11-0.04v0c0.04-0.01,0.08-0.03,0.11-0.05l0,0
		c0.04-0.02,0.08-0.03,0.11-0.05l0,0c0.04-0.02,0.08-0.04,0.11-0.06v0c0.04-0.02,0.08-0.04,0.11-0.07l0,0
		c0.04-0.02,0.08-0.05,0.11-0.07v0c0.04-0.02,0.08-0.05,0.11-0.08v0c0.04-0.03,0.08-0.05,0.11-0.08l0,0
		c0.04-0.03,0.08-0.06,0.11-0.09l0,0c0.04-0.03,0.08-0.06,0.11-0.09v0c0.04-0.03,0.08-0.06,0.11-0.1l0,0
		c0.04-0.03,0.08-0.07,0.11-0.1l0,0c0.04-0.04,0.07-0.07,0.11-0.11v0c0.04-0.04,0.07-0.07,0.11-0.11v0
		c0.04-0.04,0.07-0.08,0.11-0.12c0.04-0.04,0.07-0.08,0.11-0.12c0.04-0.04,0.07-0.08,0.11-0.13v0c0.04-0.04,0.07-0.09,0.11-0.13
		c0.04-0.04,0.07-0.09,0.11-0.13v0c0.04-0.05,0.07-0.09,0.11-0.14c0.04-0.05,0.07-0.09,0.11-0.14c0.04-0.05,0.07-0.1,0.11-0.14
		c0.04-0.05,0.07-0.1,0.11-0.15v0c0.04-0.05,0.07-0.1,0.11-0.15L65.18,93l0.11-0.16c0.04-0.05,0.07-0.11,0.11-0.16l0.1-0.16
		c0.03-0.05,0.07-0.11,0.1-0.16v0l0.1-0.16l0,0l0.1-0.17l0.1-0.17l0,0L66,91.7v0l0.1-0.17l0.1-0.17l0.1-0.17l0.1-0.17l0.1-0.17
		l0.09-0.17l0.09-0.18l0.09-0.17l0.09-0.17v0l0.09-0.17l0.09-0.17l0.09-0.17l0.09-0.17l0.08-0.17l0.08-0.17l0.08-0.17l0.08-0.17
		l0.08-0.17l0,0l0.08-0.17l0.08-0.16l0.07-0.16l0.07-0.16l0.07-0.16l0.07-0.15l0.07-0.15l0.07-0.15l0.01-0.02l0.01-0.02l0.01-0.02
		l0.01-0.02l0.01-0.02l0.01-0.02l0.01-0.02l0,0l0.01-0.02l0,0l0.01-0.05l0,0c0-0.02,0.01-0.05,0.01-0.07l0-0.02l0-0.04l0-0.02l0,0
		l0-0.04l0-0.02h0l0-0.02l0,0l0-0.02l0,0l0-0.02v0l0-0.02l0-0.02v0l0-0.02l0,0l0-0.02l0,0l0-0.02h0l0-0.02l0-0.02l-0.01-0.02h0
		l-0.01-0.02l0,0l-0.01-0.02h0l-0.01-0.02l0,0l-0.01-0.02l-0.01-0.02l-0.01-0.02l-0.01-0.02v0l-0.01-0.02l0,0l-0.01-0.02v0
		l-0.01-0.02h0l-0.01-0.02l-0.01-0.02l-0.01-0.02l-0.01-0.02l-0.01-0.02l0,0l-0.01-0.02l-0.01-0.02l-0.01-0.02l-0.01-0.02
		l-0.01-0.01l-0.01-0.01l-0.01-0.01l0,0l-0.01-0.01l-0.01-0.01L68,86.25l-0.01-0.01l-0.01-0.01l-0.01-0.01l-0.01-0.01l-0.01-0.01
		l-0.01-0.01l-0.01-0.01l-0.01-0.01l-0.02-0.01l-0.02-0.01l-0.02-0.01l-0.02-0.01L67.8,86.1l-0.02-0.01l-0.02-0.01l-0.02-0.01
		l-0.02-0.01l-0.02-0.01l-0.02-0.01l-0.02,0l-0.02,0l-0.02,0l-0.02,0l-0.02,0l-0.02,0l-0.02,0c-0.01,0-0.03,0-0.04,0l-0.02,0
		l-0.02,0l-0.02,0l-0.02,0l-0.02,0l-0.02,0l-0.02,0l-0.02,0l-0.02,0l-0.02,0.01l-0.02,0.01v0l-0.02,0.01l-0.02,0.01l-0.02,0.01
		l-0.02,0.01l-0.02,0.01l-0.02,0.01l-0.02,0.01v0l-0.02,0.01v0l-0.02,0.01l-0.02,0.01l-0.02,0.01l-0.02,0.01l0,0l-0.02,0.01v0
		l-0.02,0.01l-0.02,0.01l-0.02,0.01l-0.02,0.01L67,86.27l-0.02,0.02l-0.02,0.02l-0.01,0.02l-0.01,0.02v0l-0.01,0.02v0l-0.01,0.02v0
		l-0.01,0.02l0,0l-0.01,0.02l0,0l-0.01,0.02l0,0l-0.01,0.02l0,0l-0.01,0.02l0,0l-0.01,0.02v0l-0.01,0.02l-0.01,0.02v0l-0.01,0.02v0
		l-0.07,0.13l0,0l-0.07,0.13v0l-0.07,0.13l0,0l-0.07,0.14l-0.07,0.14v0l-0.07,0.14l0,0l-0.07,0.14l-0.07,0.14l-0.07,0.14l-0.07,0.15
		L66,88.06l-0.08,0.15l-0.08,0.15l-0.08,0.15l0,0l-0.08,0.15l-0.08,0.15l-0.08,0.15l-0.08,0.15l-0.08,0.15l-0.08,0.15v0l-0.08,0.15
		l-0.08,0.15l-0.08,0.15l-0.08,0.15l-0.08,0.15l0,0l-0.08,0.15l-0.08,0.15l0,0l-0.08,0.15l0,0l-0.08,0.14l-0.08,0.14l-0.08,0.14
		l-0.08,0.14l-0.08,0.14l-0.08,0.14l-0.08,0.13L64,91.72l-0.08,0.13l-0.08,0.13l-0.08,0.12l-0.08,0.12l-0.08,0.12l-0.08,0.11
		l-0.08,0.11l-0.08,0.11l-0.08,0.1l-0.08,0.1c-0.03,0.03-0.05,0.06-0.08,0.09c-0.03,0.03-0.05,0.06-0.08,0.09v0
		c-0.03,0.03-0.05,0.06-0.08,0.09c-0.03,0.03-0.05,0.05-0.08,0.08c-0.03,0.03-0.05,0.05-0.08,0.08c-0.03,0.02-0.05,0.05-0.08,0.07
		c-0.03,0.02-0.05,0.05-0.08,0.07c-0.03,0.02-0.05,0.04-0.08,0.06c-0.03,0.02-0.05,0.04-0.08,0.06c-0.03,0.02-0.05,0.04-0.08,0.05
		c-0.02,0.02-0.05,0.03-0.08,0.05c-0.02,0.01-0.05,0.03-0.07,0.04c-0.02,0.01-0.05,0.02-0.07,0.03s-0.05,0.02-0.07,0.03
		c-0.02,0.01-0.05,0.02-0.07,0.02c-0.02,0.01-0.05,0.01-0.07,0.02c-0.02,0-0.05,0.01-0.07,0.01c-0.02,0-0.05,0-0.07,0
		c-0.02,0-0.05,0-0.07,0c-0.02,0-0.05-0.01-0.07-0.01c-0.02,0-0.05-0.01-0.07-0.02c-0.02-0.01-0.05-0.01-0.07-0.02
		c-0.02-0.01-0.05-0.02-0.07-0.03c-0.02-0.01-0.05-0.02-0.07-0.03c-0.02-0.01-0.05-0.03-0.07-0.04c-0.03-0.01-0.05-0.03-0.08-0.05
		c-0.03-0.02-0.05-0.03-0.08-0.05c-0.03-0.02-0.05-0.04-0.08-0.06c-0.03-0.02-0.05-0.04-0.08-0.06c-0.03-0.02-0.05-0.04-0.08-0.07
		c-0.03-0.02-0.05-0.05-0.08-0.07c-0.03-0.02-0.05-0.05-0.08-0.08c-0.03-0.03-0.05-0.05-0.08-0.08c-0.03-0.03-0.05-0.06-0.08-0.09v0
		l-0.08-0.09l-0.08-0.09l-0.08-0.1l-0.08-0.1l-0.08-0.11l-0.08-0.11l-0.08-0.11l-0.08-0.12L59.9,92.1l-0.08-0.12l-0.08-0.13
		l-0.08-0.13l-0.08-0.13l-0.08-0.13l-0.08-0.14l-0.08-0.14l-0.08-0.14l-0.08-0.14l-0.08-0.14L59,90.61l0,0l-0.08-0.15l0,0
		l-0.08-0.15l-0.08-0.15l0,0l-0.08-0.15l-0.08-0.15l-0.08-0.15l-0.08-0.15l-0.08-0.15v0l-0.08-0.15l-0.08-0.15l-0.08-0.15
		l-0.08-0.15l-0.08-0.15l-0.08-0.15l0,0l-0.08-0.15l-0.08-0.15l-0.08-0.15l-0.08-0.15l-0.07-0.15l-0.07-0.14l-0.07-0.14l-0.07-0.14
		l0,0l-0.07-0.14v0l-0.07-0.14l-0.07-0.14l0,0L57,86.8v0l-0.07-0.13l0,0l-0.07-0.13v0l-0.01-0.02v0l-0.01-0.02l-0.01-0.02v0
		l-0.01-0.02l0,0l-0.01-0.02l0,0l-0.01-0.02l0,0l-0.01-0.02l0,0l-0.01-0.02l0,0l-0.01-0.02v0l-0.01-0.02v0l-0.01-0.02v0l-0.01-0.02
		l-0.02-0.02l-0.02-0.02l-0.02-0.02l-0.02-0.01l-0.02-0.01l-0.02-0.01l-0.02-0.01l-0.02-0.01v0l-0.02-0.01l0,0l-0.02-0.01
		l-0.02-0.01l-0.02-0.01l-0.02-0.01v0l-0.02-0.01v0l-0.02-0.01l-0.02-0.01l-0.02-0.01l-0.02-0.01l-0.02-0.01l-0.02-0.01l-0.02-0.01
		v0l-0.02-0.01l-0.02-0.01l0,0l-0.02,0l-0.02,0l-0.02,0l-0.02,0l-0.02,0l-0.02,0h0l-0.02,0l-0.02,0l-0.02,0l0,0h-0.02l-0.02,0l0,0
		l-0.02,0l-0.02,0l-0.02,0l0,0l-0.02,0l-0.02,0h0l-0.02,0l-0.02,0l-0.02,0.01l-0.02,0.01l0,0l-0.02,0.01l0,0l-0.02,0.01h0
		l-0.02,0.01l-0.02,0.01l0,0l-0.02,0.01h0l-0.02,0.01h0l-0.02,0.01h0l-0.02,0.01l-0.02,0.01l0,0l-0.01,0.01h0l-0.01,0.01l-0.01,0.01
		h0L55.7,86.2h0l-0.01,0.01l0,0l-0.01,0.01l-0.01,0.01l0,0l-0.01,0.01l0,0l-0.01,0.01l-0.01,0.01h0l-0.01,0.01v0L55.6,86.3
		l-0.01,0.01h0l-0.01,0.01l-0.01,0.02l-0.01,0.02h0l-0.01,0.02l-0.01,0.02l-0.01,0.02l0,0l-0.01,0.02l0,0l-0.01,0.02l-0.01,0.02h0
		l-0.01,0.02l-0.01,0.02v0l-0.01,0.02h0l-0.01,0.02v0l-0.01,0.02l-0.01,0.02l-0.01,0.02l-0.01,0.02l-0.01,0.02l-0.01,0.02v0
		l-0.01,0.02l0,0.02l0,0.02h0l0,0.02l0,0.02l0,0.02l0,0.02v0l0,0.02l0,0.02v0l0,0.02l0,0.02l0,0l0,0.02l0,0.02v0.02v0l0,0.02l0,0
		l0,0.02l0,0.02l0,0l0,0.02l0,0.02l0,0.02v0l0,0.02l0,0l0,0.02l0,0.02v0l0.01,0.02l0.01,0.02l0.01,0.02l0.01,0.02l0.01,0.02
		l0.01,0.02l0.01,0.02l0.01,0.02l0.01,0.02l0.07,0.15l0.07,0.15l0.07,0.15l0.07,0.16l0.07,0.16l0.07,0.16l0.08,0.16l0.08,0.17l0,0
		l0.08,0.17l0,0l0.08,0.17l0.08,0.17l0.08,0.17l0.08,0.17l0.09,0.17l0.09,0.17l0.09,0.17l0.09,0.17v0l0.09,0.17l0.09,0.17l0.09,0.18
		l0,0l0.09,0.17l0.09,0.17l0.1,0.17l0,0l0.1,0.17h0l0.1,0.17l0.1,0.17v0l0.1,0.17l0,0l0.1,0.17l0.1,0.17l0,0l0.1,0.16v0l0.1,0.16
		l0.1,0.16l0.11,0.16L58.47,93c0.04,0.05,0.07,0.1,0.11,0.15l0.11,0.15v0c0.04,0.05,0.07,0.1,0.11,0.15
		c0.04,0.05,0.07,0.1,0.11,0.14c0.04,0.05,0.07,0.09,0.11,0.14h0c0.04,0.05,0.07,0.09,0.11,0.14v0c0.04,0.05,0.07,0.09,0.11,0.13
		l0,0c0.04,0.04,0.07,0.09,0.11,0.13l0,0c0.04,0.04,0.07,0.08,0.11,0.13c0.04,0.04,0.07,0.08,0.11,0.12
		c0.04,0.04,0.07,0.08,0.11,0.12l0,0c0.04,0.04,0.07,0.08,0.11,0.11v0c0.04,0.04,0.07,0.07,0.11,0.11l0,0
		c0.04,0.04,0.07,0.07,0.11,0.1l0,0c0.04,0.03,0.08,0.07,0.11,0.1v0c0.04,0.03,0.08,0.06,0.11,0.09l0,0
		c0.04,0.03,0.08,0.06,0.11,0.09l0,0c0.04,0.03,0.08,0.06,0.11,0.08l0,0c0.04,0.03,0.08,0.05,0.11,0.08v0
		c0.04,0.02,0.08,0.05,0.11,0.07l0,0c0.04,0.02,0.08,0.04,0.11,0.07v0c0.04,0.02,0.08,0.04,0.11,0.06l0,0
		c0.04,0.02,0.08,0.04,0.11,0.05l0,0c0.04,0.02,0.08,0.03,0.11,0.05v0c0.04,0.01,0.08,0.03,0.11,0.04l0,0
		c0.04,0.01,0.08,0.02,0.11,0.03v0c0.04,0.01,0.08,0.02,0.11,0.03l0,0c0.04,0.01,0.08,0.01,0.11,0.02l0,0
		c0.04,0.01,0.08,0.01,0.11,0.01l0,0C61.75,95.7,61.79,95.7,61.83,95.7L61.83,95.7z M69.09,86.81c0-0.48,0.32-0.86,0.71-0.86
		c0.39,0,0.71,0.39,0.71,0.86v8.03c0,0.48-0.32,0.86-0.71,0.86c-0.39,0-0.71-0.39-0.71-0.86V86.81L69.09,86.81z M57.3,94.4
		c0.21,0.5,0.02,0.96-0.29,1.18c-0.39,0.26-0.86,0.06-1.11-0.39c-1.45-2.7-3.46-7.26-4.96-7.26c-1.5,0-3.51,4.57-4.96,7.26
		c-0.25,0.45-0.71,0.65-1.11,0.39c-0.3-0.22-0.5-0.67-0.29-1.18c1.38-3.13,3.95-8.37,6.36-8.37S55.92,91.27,57.3,94.4L57.3,94.4z"/>
	<path style="fill-rule:evenodd;clip-rule:evenodd;fill:#878787;" d="M72.94,86.43c-0.52,0.15-0.76,0.64-0.62,1.09
		c0.14,0.42,0.59,0.52,0.99,0.4c4.34-1.31,8.13-0.23,8.13,0.89s-1.84,1.53-4.61,1.53c-0.56,0-0.58,1.47,0.03,1.47l1.13,0.02
		c2.9-0.03,5.05-1.28,5.05-3.03S79.64,85.06,72.94,86.43L72.94,86.43z M106.51,87.3c-0.48,0-0.86-0.32-0.86-0.71
		c0-0.39,0.39-0.71,0.86-0.71h6.92c0.48,0,0.86,0.32,0.86,0.71c0,0.39-0.39,0.71-0.86,0.71h-2.75v7.53c0,0.48-0.32,0.86-0.71,0.86
		c-0.39,0-0.71-0.39-0.71-0.86V87.3H106.51L106.51,87.3z M84.62,86.62c0.01-0.38,0.34-0.69,0.72-0.67c0.38,0.01,0.69,0.34,0.67,0.72
		c-0.02,0.58-0.05,1.1-0.08,1.61c-0.06,1.03-0.12,2.03-0.09,2.99c0.02,0.58,0.34,1.2,0.81,1.71c0.47,0.5,1.07,0.86,1.64,0.91
		c0.66,0.06,1.3,0.08,1.91,0.07c0.63-0.01,1.26-0.05,1.87-0.11c0.38-0.03,0.72,0.25,0.76,0.63c0.03,0.38-0.25,0.72-0.63,0.76
		c-0.65,0.06-1.3,0.1-1.98,0.11c-0.69,0.01-1.38-0.01-2.05-0.07c-0.93-0.08-1.85-0.61-2.54-1.35c-0.69-0.73-1.16-1.69-1.19-2.62
		c-0.03-1.04,0.03-2.07,0.09-3.11C84.57,87.66,84.6,87.12,84.62,86.62L84.62,86.62z M125.73,94.4c0.21,0.5,0.02,0.96-0.29,1.18
		c-0.39,0.26-0.86,0.06-1.11-0.39c-1.45-2.7-3.46-7.26-4.96-7.26c-1.5,0-3.51,4.57-4.96,7.26c-0.25,0.45-0.71,0.65-1.11,0.39
		c-0.3-0.22-0.5-0.67-0.29-1.18c1.38-3.13,3.95-8.37,6.36-8.37S124.34,91.27,125.73,94.4L125.73,94.4z M106.77,94.4
		c0.21,0.5,0.02,0.96-0.29,1.18c-0.39,0.26-0.86,0.06-1.11-0.39c-1.45-2.7-3.46-7.26-4.96-7.26c-1.5,0-3.51,4.57-4.96,7.26
		c-0.25,0.45-0.71,0.65-1.11,0.39c-0.3-0.22-0.5-0.67-0.29-1.18c1.38-3.13,3.95-8.37,6.36-8.37
		C102.82,86.04,105.39,91.27,106.77,94.4L106.77,94.4z M74.21,89.84c0-0.48,0.32-0.86,0.71-0.86c0.39,0,0.71,0.39,0.71,0.86v5
		c0,0.48-0.32,0.86-0.71,0.86c-0.39,0-0.71-0.39-0.71-0.86V89.84L74.21,89.84z"/>
	<path style="fill-rule:evenodd;clip-rule:evenodd;fill:#D51C20;" d="M16.75,87.61c-0.21,0.48,0.46,0.78,0.71,0.31
		c1.46-2.67,2.38-5.65,4.02-8.23c0.58-0.91,1.74-1.48,2.81-1.62c1.67-0.21,3.52-0.17,5.17,0.37c1.3,0.42,2.09,2.16,1.64,3.54
		C29.31,87.47,26.6,92.44,23.2,97c-1.03,1.38-3.11,1.47-4.43,0.68c-1.1-0.66-2.09-1.53-3.12-2.22c-0.04-0.03-0.13-0.04-0.16,0
		c-2.17,2.94-5.86,2.24-10.37-1.45C5.08,93.98,4.99,94.04,5,94.08c0.36,2.99,1.21,6.18,4.12,9.28c0.37,0.39,0.94,0.6,1.47,0.64
		c5.16,0.43,8.28-1.71,10.43-4.69c0.03-0.05,0.1-0.08,0.16-0.07c0.74,0.11,1.9-0.23,2.9-1.48c2.92-3.65,6.65-9.24,8.51-15.54
		c0.43-1.44,0.06-2.86-0.74-3.84c0.44-0.87,0.7-1.81,0.81-2.8c0.51-0.09,0.9-0.51,0.9-1.02c0-0.58-0.49-1.04-1.1-1.04
		c-0.61,0-1.1,0.47-1.1,1.04c0,0.4,0.23,0.74,0.58,0.92c-0.2,0.79-0.51,1.51-0.92,2.16c-0.32-0.2-0.68-0.36-1.07-0.47
		c-1.62-0.44-3.31-0.6-5.17-0.5c-1.46,0.07-3.42,0.98-4.17,2.24C18.98,81.61,18.04,84.72,16.75,87.61L16.75,87.61z M14.85,100.31
		c-0.18-0.26-0.43-0.4-0.7-0.48c-0.26-0.07-0.55-0.08-0.82-0.04c-0.2,0.03-0.4,0.05-0.6,0.08c-0.3,0.04-0.66,0.07-0.79-0.2
		c-0.07-0.15-0.05-0.29,0.04-0.42c0.09-0.13,0.24-0.24,0.42-0.32c0.14-0.06,0.3-0.11,0.47-0.15c0.17-0.04,0.35-0.07,0.54-0.1
		c-0.11-0.15-0.21-0.31-0.32-0.47c-0.15,0.02-0.3,0.05-0.44,0.09c-0.14,0.03-0.27,0.07-0.38,0.12c-0.07-0.12-0.14-0.23-0.21-0.35
		c-0.13,0.06-0.26,0.12-0.39,0.18c0.07,0.13,0.14,0.25,0.21,0.38c-0.24,0.17-0.42,0.4-0.51,0.64c-0.09,0.25-0.1,0.52,0.02,0.79
		c0.11,0.24,0.29,0.4,0.52,0.49c0.23,0.09,0.51,0.11,0.79,0.07c0.2-0.03,0.41-0.06,0.62-0.09c0.33-0.05,0.73-0.1,0.93,0.21
		c0.1,0.15,0.1,0.32,0,0.47c-0.1,0.16-0.29,0.31-0.56,0.44c-0.17,0.08-0.39,0.16-0.63,0.23c-0.25,0.07-0.52,0.12-0.79,0.14
		c0.08,0.17,0.15,0.34,0.23,0.52c0.27-0.02,0.53-0.08,0.76-0.15c0.23-0.07,0.43-0.16,0.56-0.22c0.07,0.12,0.13,0.24,0.2,0.35
		c0.18-0.08,0.36-0.17,0.54-0.25c-0.08-0.13-0.15-0.26-0.23-0.38c0.35-0.24,0.57-0.5,0.66-0.78
		C15.08,100.84,15.04,100.56,14.85,100.31L14.85,100.31z M22.5,80.46c-1.4,2.03-2.38,4.15-1.8,5.15c0.58,0.89,2.84,1.36,5.29,1.03
		c0.39-0.06,0.57-0.3,0.59-0.57c0.01-0.34-0.24-0.48-0.61-0.46c-2.21,0.12-4.01-0.1-4.36-0.61c-0.33-0.61,0.68-2.12,1.79-4.03
		c0.18-0.32,0.17-0.65-0.14-0.79C23.01,80.07,22.73,80.14,22.5,80.46L22.5,80.46z"/>
	<path style="fill:#C80A80;" d="M151.15,9.38h-7.38c-0.86,0-1.56,0.7-1.56,1.56v6.28c0,0.86,0.7,1.56,1.56,1.56h7.38
		c0.86,0,1.56-0.7,1.56-1.56v-6.28C152.71,10.07,152.01,9.38,151.15,9.38L151.15,9.38z"/>
	<path style="fill:#1A0E1E;" d="M196.29,9.38h-6.37c-0.86,0-1.56,0.71-1.56,1.56V36.4c0,0.53-0.68,0.71-0.92,0.24l-14.81-26.59
		c-0.24-0.43-0.68-0.68-1.2-0.68h-10.6c-0.86,0-1.56,0.71-1.56,1.56v40.68c0,0.86,0.71,1.56,1.56,1.56h6.37
		c0.86,0,1.56-0.71,1.56-1.56V25.39c0-0.53,0.68-0.71,0.92-0.24l15.22,27.38c0.24,0.43,0.68,0.68,1.2,0.68h10.13
		c0.86,0,1.56-0.71,1.56-1.56V10.92c0-0.86-0.71-1.56-1.56-1.56h0.06V9.38L196.29,9.38z"/>
	<path style="fill:#1A0E1E;" d="M211.87,32.96c0.92-4.12,3.33-5.94,6.95-5.94c3.23,0,6.01,1.88,6.41,5.94h-13.34H211.87
		L211.87,32.96z M234.6,37.3c0-11.46-7.46-17.16-15.65-17.16c-10.65,0-16.72,7.38-16.72,17.34c0,11.33,7.63,16.72,16.48,16.72
		s14.02-4.57,15.41-10.5c0.19-0.77-0.24-1.45-1.39-1.45h-5.02c-0.56,0-1.07,0.3-1.32,0.86c-1.26,2.74-3.27,4.19-7.14,4.19
		c-4.38,0-7.33-2.74-7.76-8.32h21.53c0.92,0,1.56-0.68,1.56-1.69H234.6L234.6,37.3z"/>
	<path style="fill:#1A0E1E;" d="M316.49,20.95h-6.39c-0.86,0-1.56,0.7-1.56,1.56v29.13c0,0.86,0.7,1.56,1.56,1.56h6.39
		c0.86,0,1.56-0.7,1.56-1.56V22.51C318.05,21.65,317.36,20.95,316.49,20.95L316.49,20.95z"/>
	<path style="fill:#1A0E1E;" d="M254.47,46.94c-4.19,0-7.14-3.08-7.14-9.7c0-6.61,2.95-10.07,7.14-10.07
		c4.19,0,7.14,3.19,7.14,10.07C261.61,44.12,258.66,46.94,254.47,46.94L254.47,46.94z M268.97,20.95h-6.37
		c-0.86,0-1.56,0.71-1.56,1.56v1.58c-1.9-2.24-5.04-3.78-9.15-3.78c-9.21,0-14.07,8.32-14.07,17.16c0,7.7,4,16.35,13.89,16.35
		c3.53,0,7.29-1.69,9.34-4.08v12.53c0,0.86,0.71,1.56,1.56,1.56h6.37c0.86,0,1.56-0.71,1.56-1.56V22.57c0-0.86-0.71-1.56-1.56-1.56
		V20.95L268.97,20.95z"/>
	<path style="fill:#1A0E1E;" d="M302.91,20.95h-6.37c-0.86,0-1.56,0.71-1.56,1.56v16.48c0,5.32-2.37,6.86-5.39,6.86
		c-3.03,0-5.39-1.56-5.39-6.86V22.51c0-0.86-0.71-1.56-1.56-1.56h-6.37c-0.86,0-1.56,0.71-1.56,1.56v17.16
		c0,10.2,5.64,14.32,14.9,14.32c9.26,0,14.9-4.13,14.9-14.32V22.51c0-0.86-0.71-1.56-1.56-1.56h-0.06H302.91L302.91,20.95z"/>
	<path style="fill:#C80A80;" d="M38.46,5.02h-8.74c-1.02,0-1.85,0.83-1.85,1.85v7.42c0,1.02,0.83,1.85,1.85,1.85h8.74
		c1.02,0,1.85-0.83,1.85-1.85V6.87C40.3,5.85,39.47,5.02,38.46,5.02L38.46,5.02z"/>
	<path style="fill:#1A0E1E;" d="M91.85,5.02h-7.54c-1.02,0-1.85,0.84-1.85,1.85v30.12c0,0.62-0.8,0.84-1.09,0.29L63.86,5.82
		c-0.29-0.51-0.8-0.8-1.42-0.8H49.9c-1.02,0-1.85,0.84-1.85,1.85v48.13c0,1.02,0.85,1.85,1.85,1.85h7.54c1.02,0,1.85-0.84,1.85-1.85
		V23.96c0-0.62,0.8-0.84,1.09-0.29l18.01,32.39c0.29,0.51,0.8,0.8,1.42,0.8h11.98c1.02,0,1.85-0.85,1.85-1.85V6.85
		c0-1.02-0.84-1.85-1.85-1.85h0.07V5.02L91.85,5.02z"/>
	<path style="fill-rule:evenodd;clip-rule:evenodd;fill:#010202;" d="M162.4,86.43c-0.52,0.15-0.76,0.64-0.62,1.09
		c0.14,0.42,0.59,0.52,0.99,0.4c4.34-1.31,8.1,0.47,8.13,2.86c-0.02,1.86-0.79,3.31-4.42,3.49c-0.51,0.03-1.29-0.05-1.91-0.07
		c-0.41-0.02-0.54-0.29-0.54-0.78v-3.8c0-0.4-0.38-0.9-0.72-0.9c-0.36,0-0.74,0.5-0.74,0.9v4.76c0.05,0.78,0.62,1.24,1.28,1.28
		l3.35,0.03c2.9-0.03,5.28-2.21,5.28-4.91C172.49,87.95,169.1,85.06,162.4,86.43L162.4,86.43z M189.68,95.7L189.68,95.7L189.68,95.7
		c0.04,0,0.08,0,0.11,0v0c0.04,0,0.08-0.01,0.11-0.01l0,0c0.04-0.01,0.08-0.01,0.11-0.02l0,0c0.04-0.01,0.08-0.02,0.11-0.03v0
		c0.04-0.01,0.08-0.02,0.11-0.03l0,0c0.04-0.01,0.08-0.02,0.11-0.04v0c0.04-0.01,0.08-0.03,0.11-0.05v0
		c0.04-0.02,0.08-0.03,0.11-0.05v0c0.04-0.02,0.08-0.04,0.11-0.06l0,0c0.04-0.02,0.08-0.04,0.11-0.07l0,0
		c0.04-0.02,0.08-0.05,0.11-0.07l0,0c0.04-0.02,0.08-0.05,0.11-0.08l0,0c0.04-0.03,0.08-0.05,0.11-0.08v0
		c0.04-0.03,0.08-0.06,0.11-0.09l0,0c0.04-0.03,0.08-0.06,0.11-0.09v0c0.04-0.03,0.08-0.06,0.11-0.1l0,0
		c0.04-0.03,0.08-0.07,0.11-0.1l0,0c0.04-0.04,0.07-0.07,0.11-0.11v0c0.04-0.04,0.07-0.07,0.11-0.11v0
		c0.04-0.04,0.07-0.08,0.11-0.12c0.04-0.04,0.07-0.08,0.11-0.12c0.04-0.04,0.07-0.08,0.11-0.13l0,0c0.04-0.04,0.07-0.09,0.11-0.13
		c0.04-0.04,0.07-0.09,0.11-0.13v0c0.04-0.05,0.07-0.09,0.11-0.14c0.04-0.05,0.07-0.09,0.11-0.14c0.04-0.05,0.07-0.1,0.11-0.14
		c0.04-0.05,0.07-0.1,0.11-0.15l0,0c0.04-0.05,0.07-0.1,0.11-0.15l0.11-0.15l0.11-0.16c0.04-0.05,0.07-0.11,0.11-0.16l0.1-0.16
		c0.03-0.05,0.07-0.11,0.1-0.16l0,0l0.1-0.16l0,0l0.1-0.17l0.1-0.17l0,0l0.1-0.17v0l0.1-0.17l0.1-0.17l0.1-0.17l0.1-0.17l0.1-0.17
		l0.09-0.17l0.09-0.17l0.09-0.18l0.09-0.17v0l0.09-0.17l0.09-0.17l0.09-0.17l0.09-0.17l0.08-0.17l0.08-0.17l0.08-0.17l0.08-0.17
		l0.08-0.17v0l0.08-0.16l0.08-0.16l0.07-0.16l0.07-0.16l0.07-0.16l0.07-0.15l0.07-0.15l0.07-0.15l0.01-0.02l0.01-0.02l0.01-0.02
		l0.01-0.02l0.01-0.02l0.01-0.02l0.01-0.02l0,0l0.01-0.02l0,0l0.01-0.05l0,0c0-0.02,0.01-0.05,0.01-0.07l0-0.02l0-0.04l0-0.02l0,0
		l0-0.04l0-0.02h0l0-0.02v0l0-0.02l0,0l0-0.02v0l0-0.02l0-0.02l0,0l0-0.02l0,0l0-0.02l0,0l0-0.02h0l0-0.02l0-0.02l-0.01-0.02h0
		l-0.01-0.02h0l-0.01-0.02h0l-0.01-0.02l0,0l-0.01-0.02l-0.01-0.02l-0.01-0.02l-0.01-0.02l0,0l-0.01-0.02v0l-0.01-0.02l0,0
		l-0.01-0.02h0l-0.01-0.02L196,86.44l-0.01-0.02l-0.01-0.02l-0.01-0.02l0,0l-0.01-0.02l-0.01-0.02l-0.01-0.02l-0.01-0.01l-0.01-0.01
		l-0.01-0.01l-0.01-0.01h0l-0.01-0.01l-0.01-0.01l-0.01-0.01l-0.01-0.01l-0.01-0.01l-0.01-0.01l-0.01-0.01l-0.01-0.01l-0.01-0.01
		l-0.01-0.01l-0.01-0.01l-0.02-0.01l-0.02-0.01l-0.02-0.01l-0.02-0.01l-0.02-0.01l-0.02-0.01l-0.02-0.01l-0.02-0.01l-0.02-0.01
		l-0.02-0.01l-0.02-0.01l-0.02,0l-0.02,0l-0.02,0l-0.02,0l-0.02,0l-0.02,0l-0.02,0c-0.01,0-0.03,0-0.04,0l-0.02,0l-0.02,0l-0.02,0
		l-0.02,0l-0.02,0l-0.02,0l-0.02,0l-0.02,0l-0.02,0.01l-0.02,0.01l-0.02,0.01v0l-0.02,0.01l-0.02,0.01l-0.02,0.01l-0.02,0.01
		l-0.02,0.01l-0.02,0.01l-0.02,0.01v0l-0.02,0.01v0L195,86.15l-0.02,0.01l-0.02,0.01l-0.02,0.01l0,0l-0.02,0.01l0,0l-0.02,0.01
		l-0.02,0.01l-0.02,0.01l-0.02,0.01l-0.02,0.01l-0.02,0.02l-0.02,0.02l-0.01,0.02l-0.01,0.02v0l-0.01,0.02l0,0l-0.01,0.02l0,0
		l-0.01,0.02v0l-0.01,0.02v0l-0.01,0.02l0,0l-0.01,0.02v0l-0.01,0.02v0l-0.01,0.02l0,0l-0.01,0.02l-0.01,0.02l0,0l-0.01,0.02l0,0
		l-0.07,0.13l0,0l-0.07,0.13v0l-0.07,0.13v0l-0.07,0.13l-0.07,0.14l0,0l-0.07,0.14v0l-0.07,0.14l-0.07,0.14L194,87.77l-0.07,0.15
		l-0.08,0.15l-0.08,0.15l-0.08,0.15l-0.08,0.15l0,0l-0.08,0.15l-0.08,0.15l-0.08,0.15l-0.08,0.15l-0.08,0.15l-0.08,0.15l0,0
		l-0.08,0.15l-0.08,0.15l-0.08,0.15l-0.08,0.15l-0.08,0.15l0,0l-0.08,0.15l-0.08,0.15v0l-0.08,0.15v0l-0.08,0.14l-0.08,0.14
		l-0.08,0.14l-0.08,0.14l-0.08,0.14l-0.08,0.14l-0.08,0.13l-0.08,0.13l-0.08,0.13l-0.08,0.13l-0.08,0.12l-0.08,0.12l-0.08,0.12
		l-0.08,0.11l-0.08,0.11l-0.08,0.11l-0.08,0.1l-0.08,0.1c-0.03,0.03-0.05,0.06-0.08,0.09c-0.03,0.03-0.05,0.06-0.08,0.09v0
		c-0.03,0.03-0.05,0.06-0.08,0.09c-0.03,0.03-0.05,0.05-0.08,0.08c-0.03,0.03-0.05,0.05-0.08,0.08c-0.03,0.02-0.05,0.05-0.08,0.07
		c-0.03,0.02-0.05,0.05-0.08,0.07c-0.03,0.02-0.05,0.04-0.08,0.06c-0.03,0.02-0.05,0.04-0.08,0.06c-0.03,0.02-0.05,0.04-0.08,0.05
		c-0.02,0.02-0.05,0.03-0.08,0.05c-0.02,0.01-0.05,0.03-0.07,0.04c-0.02,0.01-0.05,0.02-0.07,0.03c-0.02,0.01-0.05,0.02-0.07,0.03
		c-0.02,0.01-0.05,0.02-0.07,0.02c-0.02,0.01-0.05,0.01-0.07,0.02c-0.02,0-0.05,0.01-0.07,0.01c-0.02,0-0.05,0-0.07,0
		c-0.02,0-0.05,0-0.07,0c-0.02,0-0.05-0.01-0.07-0.01c-0.02,0-0.05-0.01-0.07-0.02c-0.02-0.01-0.05-0.01-0.07-0.02
		c-0.02-0.01-0.05-0.02-0.07-0.03c-0.02-0.01-0.05-0.02-0.07-0.03c-0.02-0.01-0.05-0.03-0.07-0.04c-0.03-0.01-0.05-0.03-0.08-0.05
		c-0.03-0.02-0.05-0.03-0.08-0.05c-0.03-0.02-0.05-0.04-0.08-0.06c-0.03-0.02-0.05-0.04-0.08-0.06c-0.03-0.02-0.05-0.04-0.08-0.07
		c-0.03-0.02-0.05-0.05-0.08-0.07c-0.03-0.02-0.05-0.05-0.08-0.08c-0.03-0.03-0.05-0.05-0.08-0.08c-0.03-0.03-0.05-0.06-0.08-0.09v0
		l-0.08-0.09l-0.08-0.09l-0.08-0.1l-0.08-0.1l-0.08-0.11l-0.08-0.11l-0.08-0.11l-0.08-0.12l-0.08-0.12l-0.08-0.12l-0.08-0.13
		l-0.08-0.13l-0.08-0.13l-0.08-0.13l-0.08-0.14l-0.08-0.14l-0.08-0.14l-0.08-0.14l-0.08-0.14l-0.08-0.14v0l-0.08-0.15v0l-0.08-0.15
		l-0.08-0.15l0,0l-0.08-0.15l-0.08-0.15l-0.08-0.15l-0.08-0.15l-0.08-0.15l0,0l-0.08-0.15l-0.08-0.15l-0.08-0.15l-0.08-0.15
		l-0.08-0.15l-0.08-0.15l0,0l-0.08-0.15l-0.08-0.15l-0.08-0.15l-0.08-0.15l-0.07-0.15l-0.07-0.14l-0.07-0.14l-0.07-0.14v0
		l-0.07-0.14l0,0l-0.07-0.14l-0.07-0.13v0l-0.07-0.13v0l-0.07-0.13l0,0l-0.07-0.13l0,0l-0.01-0.02l0,0l-0.01-0.02l-0.01-0.02l0,0
		l-0.01-0.02v0l-0.01-0.02v0l-0.01-0.02l0,0l-0.01-0.02v0l-0.01-0.02v0l-0.01-0.02l0,0l-0.01-0.02l0,0l-0.01-0.02v0l-0.01-0.02
		l-0.01-0.02l-0.02-0.02l-0.02-0.02l-0.02-0.01l-0.02-0.01l-0.02-0.01l-0.02-0.01l-0.02-0.01l0,0l-0.02-0.01l0,0l-0.02-0.01
		l-0.02-0.01l-0.02-0.01l-0.02-0.01v0l-0.02-0.01v0l-0.02-0.01l-0.02-0.01l-0.02-0.01l-0.02-0.01l-0.02-0.01l-0.02-0.01l-0.02-0.01
		v0l-0.02-0.01l-0.02-0.01l0,0l-0.02-0.01l-0.02,0l-0.02,0l-0.02,0l-0.02,0l-0.02,0h0l-0.02,0l-0.02,0l-0.02,0l0,0h-0.02l-0.02,0
		l0,0l-0.02,0l-0.02,0l-0.02,0l0,0l-0.02,0l-0.02,0h0l-0.02,0l-0.02,0l-0.02,0.01l-0.02,0.01l0,0l-0.02,0.01l0,0l-0.02,0.01h0
		l-0.02,0.01l-0.02,0.01l0,0l-0.02,0.01h0l-0.02,0.01h0l-0.02,0.01h0l-0.02,0.01l-0.02,0.01l0,0l-0.01,0.01h0l-0.01,0.01l-0.01,0.01
		h0l-0.01,0.01h0l-0.01,0.01l0,0l-0.01,0.01l-0.01,0.01l0,0l-0.01,0.01l0,0l-0.01,0.01l-0.01,0.01h0l-0.01,0.01l0,0l-0.01,0.01
		l-0.01,0.01h0l-0.01,0.01l-0.01,0.01l-0.01,0.02h0l-0.01,0.02l-0.01,0.02l-0.01,0.02l0,0l-0.01,0.02l0,0l-0.01,0.02l-0.01,0.02h0
		l-0.01,0.02l-0.01,0.02l0,0l-0.01,0.02l0,0l-0.01,0.02l0,0l-0.01,0.02l-0.01,0.02l-0.01,0.02l-0.01,0.02l-0.01,0.02l-0.01,0.02l0,0
		l-0.01,0.02l0,0.02l0,0.02h0l0,0.02l0,0.02l0,0.02l0,0.02l0,0l0,0.02l0,0.02v0l0,0.02l0,0.02v0l0,0.02l0,0.02v0.02l0,0l0,0.02l0,0
		l0,0.02l0,0.02l0,0l0,0.02l0,0.02l0,0.02v0l0,0.02l0,0l0,0.02l0,0.02v0l0.01,0.02l0.01,0.02l0.01,0.02l0.01,0.02l0.01,0.02
		l0.01,0.02l0.01,0.02l0.01,0.02l0.01,0.02l0.07,0.15l0.07,0.15l0.07,0.15l0.07,0.16l0.07,0.16l0.07,0.16l0.08,0.16l0.08,0.16v0
		l0.08,0.17l0,0l0.08,0.17l0.08,0.17l0.08,0.17l0.08,0.17l0.09,0.17l0.09,0.17l0.09,0.17l0.09,0.17v0l0.09,0.17l0.09,0.18l0.09,0.17
		l0,0l0.09,0.17l0.09,0.17l0.1,0.17l0,0l0.1,0.17h0l0.1,0.17l0.1,0.17v0l0.1,0.17l0,0l0.1,0.17l0.1,0.17l0,0l0.1,0.16l0,0l0.1,0.16
		l0.1,0.16l0.11,0.16l0.11,0.16c0.04,0.05,0.07,0.1,0.11,0.15l0.11,0.15l0,0c0.04,0.05,0.07,0.1,0.11,0.15
		c0.04,0.05,0.07,0.1,0.11,0.14c0.04,0.05,0.07,0.09,0.11,0.14h0c0.04,0.05,0.07,0.09,0.11,0.14v0c0.04,0.05,0.07,0.09,0.11,0.13
		l0,0c0.04,0.04,0.07,0.09,0.11,0.13h0c0.04,0.04,0.07,0.09,0.11,0.13c0.04,0.04,0.07,0.08,0.11,0.12c0.04,0.04,0.07,0.08,0.11,0.12
		l0,0c0.04,0.04,0.07,0.08,0.11,0.11v0c0.04,0.04,0.07,0.07,0.11,0.11l0,0c0.04,0.04,0.07,0.07,0.11,0.1l0,0
		c0.04,0.03,0.08,0.07,0.11,0.1v0c0.04,0.03,0.08,0.06,0.11,0.09l0,0c0.04,0.03,0.08,0.06,0.11,0.09v0
		c0.04,0.03,0.08,0.06,0.11,0.08h0c0.04,0.03,0.08,0.05,0.11,0.08l0,0c0.04,0.02,0.08,0.05,0.11,0.07l0,0
		c0.04,0.02,0.08,0.04,0.11,0.07l0,0c0.04,0.02,0.08,0.04,0.11,0.06v0c0.04,0.02,0.08,0.04,0.11,0.05v0
		c0.04,0.02,0.08,0.03,0.11,0.05v0c0.04,0.01,0.08,0.03,0.11,0.04l0,0c0.04,0.01,0.08,0.02,0.11,0.03v0
		c0.04,0.01,0.08,0.02,0.11,0.03l0,0c0.04,0.01,0.08,0.01,0.11,0.02l0,0c0.04,0,0.08,0.01,0.11,0.01v0
		C189.6,95.7,189.64,95.7,189.68,95.7L189.68,95.7z M196.94,86.81c0-0.48,0.32-0.86,0.71-0.86c0.39,0,0.71,0.39,0.71,0.86v8.03
		c0,0.48-0.32,0.86-0.71,0.86c-0.39,0-0.71-0.39-0.71-0.86V86.81L196.94,86.81z M185.16,94.4c0.21,0.5,0.02,0.96-0.29,1.18
		c-0.39,0.26-0.86,0.06-1.11-0.39c-1.45-2.7-3.46-7.26-4.96-7.26c-1.5,0-3.51,4.57-4.96,7.26c-0.25,0.45-0.71,0.65-1.11,0.39
		c-0.3-0.22-0.5-0.68-0.29-1.18c1.38-3.13,3.95-8.37,6.36-8.37C181.21,86.04,183.77,91.27,185.16,94.4L185.16,94.4z"/>
	<path style="fill-rule:evenodd;clip-rule:evenodd;fill:#010202;" d="M200.79,86.43c-0.52,0.15-0.76,0.64-0.62,1.09
		c0.14,0.42,0.59,0.52,0.99,0.4c4.34-1.31,8.13-0.23,8.13,0.89s-1.84,1.53-4.61,1.53c-0.56,0-0.58,1.47,0.03,1.47l1.13,0.02
		c2.9-0.03,5.05-1.28,5.05-3.03C210.89,87.06,207.5,85.06,200.79,86.43L200.79,86.43z M234.36,87.3c-0.48,0-0.86-0.32-0.86-0.71
		c0-0.39,0.39-0.71,0.86-0.71h6.92c0.48,0,0.86,0.32,0.86,0.71c0,0.39-0.39,0.71-0.86,0.71h-2.75v7.53c0,0.48-0.32,0.86-0.71,0.86
		c-0.39,0-0.71-0.39-0.71-0.86V87.3H234.36L234.36,87.3z M212.47,86.62c0.01-0.38,0.34-0.69,0.72-0.67
		c0.38,0.01,0.69,0.34,0.67,0.72c-0.02,0.58-0.05,1.1-0.08,1.61c-0.06,1.03-0.12,2.03-0.09,2.99c0.02,0.58,0.34,1.2,0.81,1.71
		c0.47,0.5,1.07,0.86,1.64,0.91c0.66,0.06,1.3,0.08,1.91,0.07c0.63-0.01,1.26-0.05,1.87-0.11c0.38-0.03,0.72,0.25,0.76,0.63
		c0.03,0.38-0.25,0.72-0.63,0.76c-0.65,0.06-1.3,0.1-1.98,0.11c-0.69,0.01-1.38-0.01-2.05-0.07c-0.93-0.08-1.85-0.61-2.54-1.35
		c-0.69-0.73-1.16-1.69-1.19-2.62c-0.03-1.04,0.03-2.07,0.09-3.11C212.42,87.66,212.45,87.12,212.47,86.62L212.47,86.62z
		 M253.58,94.4c0.21,0.5,0.02,0.96-0.29,1.18c-0.39,0.26-0.86,0.06-1.11-0.39c-1.45-2.7-3.46-7.26-4.96-7.26
		c-1.5,0-3.51,4.57-4.96,7.26c-0.25,0.45-0.71,0.65-1.11,0.39c-0.3-0.22-0.5-0.68-0.29-1.18c1.38-3.13,3.95-8.37,6.36-8.37
		C249.63,86.04,252.2,91.27,253.58,94.4L253.58,94.4z M234.63,94.4c0.21,0.5,0.02,0.96-0.29,1.18c-0.39,0.26-0.86,0.06-1.11-0.39
		c-1.45-2.7-3.46-7.26-4.96-7.26s-3.51,4.57-4.96,7.26c-0.25,0.45-0.71,0.65-1.11,0.39c-0.3-0.22-0.5-0.68-0.29-1.18
		c1.38-3.13,3.95-8.37,6.36-8.37C230.68,86.04,233.24,91.27,234.63,94.4L234.63,94.4z M202.06,89.84c0-0.48,0.32-0.86,0.71-0.86
		c0.39,0,0.71,0.39,0.71,0.86v5c0,0.48-0.32,0.86-0.71,0.86c-0.39,0-0.71-0.39-0.71-0.86V89.84L202.06,89.84z"/>
	<path style="fill-rule:evenodd;clip-rule:evenodd;fill:#010202;" d="M144.61,87.61c-0.21,0.48,0.46,0.78,0.71,0.31
		c1.46-2.67,2.38-5.65,4.02-8.23c0.58-0.91,1.74-1.48,2.81-1.62c1.67-0.21,3.52-0.17,5.17,0.37c1.3,0.42,2.09,2.16,1.64,3.54
		c-1.8,5.49-4.51,10.47-7.92,15.03c-1.03,1.38-3.11,1.47-4.43,0.68c-1.1-0.66-2.09-1.53-3.12-2.22c-0.04-0.03-0.13-0.04-0.16,0
		c-2.17,2.94-5.86,2.24-10.37-1.45c-0.04-0.03-0.12,0.03-0.12,0.07c0.36,2.99,1.21,6.18,4.12,9.28c0.37,0.39,0.94,0.6,1.47,0.64
		c5.16,0.43,8.28-1.71,10.43-4.69c0.03-0.05,0.1-0.08,0.16-0.07c0.74,0.11,1.9-0.23,2.9-1.48c2.92-3.65,6.65-9.24,8.51-15.54
		c0.43-1.44,0.06-2.86-0.74-3.84c0.44-0.87,0.7-1.81,0.81-2.8c0.51-0.09,0.9-0.51,0.9-1.02c0-0.58-0.49-1.04-1.1-1.04
		c-0.61,0-1.1,0.47-1.1,1.04c0,0.4,0.23,0.74,0.58,0.92c-0.2,0.79-0.51,1.51-0.92,2.16c-0.32-0.2-0.68-0.36-1.07-0.47
		c-1.62-0.44-3.31-0.6-5.17-0.5c-1.46,0.07-3.42,0.98-4.17,2.24C146.84,81.61,145.89,84.72,144.61,87.61L144.61,87.61z
		 M142.71,100.31c-0.18-0.26-0.43-0.4-0.7-0.48c-0.26-0.07-0.55-0.08-0.82-0.04c-0.2,0.03-0.4,0.05-0.6,0.08
		c-0.3,0.04-0.66,0.07-0.79-0.2c-0.07-0.15-0.05-0.29,0.04-0.42c0.09-0.13,0.24-0.24,0.42-0.32c0.14-0.06,0.3-0.11,0.47-0.15
		c0.17-0.04,0.35-0.07,0.54-0.1c-0.11-0.15-0.21-0.31-0.32-0.47c-0.15,0.02-0.3,0.05-0.44,0.09c-0.14,0.03-0.27,0.07-0.38,0.12
		c-0.07-0.12-0.14-0.23-0.21-0.35c-0.13,0.06-0.26,0.12-0.39,0.18c0.07,0.13,0.14,0.25,0.21,0.38c-0.24,0.17-0.42,0.4-0.51,0.64
		c-0.09,0.25-0.1,0.52,0.02,0.79c0.11,0.24,0.29,0.4,0.52,0.49c0.23,0.09,0.51,0.11,0.79,0.07c0.2-0.03,0.41-0.06,0.62-0.09
		c0.33-0.05,0.73-0.1,0.93,0.21c0.1,0.15,0.1,0.32,0,0.47c-0.1,0.16-0.29,0.31-0.56,0.44c-0.17,0.08-0.39,0.16-0.63,0.23
		c-0.25,0.07-0.52,0.12-0.79,0.14c0.08,0.17,0.15,0.34,0.23,0.52c0.27-0.02,0.53-0.08,0.76-0.15c0.23-0.07,0.43-0.16,0.56-0.22
		c0.07,0.12,0.13,0.24,0.2,0.35c0.18-0.08,0.36-0.17,0.54-0.25c-0.08-0.13-0.15-0.26-0.23-0.38c0.35-0.24,0.57-0.5,0.66-0.78
		C142.94,100.84,142.89,100.56,142.71,100.31L142.71,100.31z M150.35,80.46c-1.4,2.03-2.38,4.15-1.8,5.15
		c0.58,0.89,2.84,1.36,5.29,1.03c0.39-0.06,0.57-0.3,0.59-0.57c0.01-0.34-0.24-0.48-0.61-0.46c-2.21,0.13-4.01-0.1-4.36-0.61
		c-0.33-0.61,0.68-2.12,1.79-4.03c0.18-0.32,0.17-0.65-0.14-0.79C150.87,80.07,150.58,80.14,150.35,80.46L150.35,80.46z"/>
	<path style="fill:#010202;" d="M164.5,135.1c0.88,0,1.54,0.47,2.16,1.01c1.24,1.09,2.16,2.46,3.02,3.88
		c1.25,2.04,2.29,4.19,3.2,6.41c0.12,0.28,0.21,0.58,0.26,0.88c0.12,0.73-0.11,1.31-0.81,1.55c-0.74,0.25-1.09-0.27-1.33-0.88
		c-1.07-2.73-2.31-5.36-3.89-7.81c-0.5-0.77-1.04-1.5-1.77-2.07c-0.55-0.43-1.07-0.44-1.63-0.02c-0.77,0.57-1.32,1.33-1.84,2.13
		c-1.54,2.37-2.75,4.91-3.79,7.55c-0.27,0.68-0.53,1.39-1.45,1.11c-0.72-0.23-1.03-1.1-0.66-2.02c1.36-3.45,2.98-6.75,5.32-9.61
		C162.13,136.15,163.08,135.22,164.5,135.1L164.5,135.1z M141.79,143.56c0-0.99-0.01-1.99,0-2.98c0.01-0.68,0.08-1.37,0.95-1.38
		c0.87,0,0.95,0.66,0.95,1.36c0,1.8,0.01,3.6-0.01,5.4c0,0.49,0.11,0.71,0.61,0.78c2.13,0.3,4.21,0.18,6.17-0.82
		c2.24-1.15,3.61-4.51,0.75-6.95c-1.61-1.38-3.52-1.71-5.48-1.88c-1.64-0.14-3.26,0.05-4.84,0.52c-0.56,0.16-1.11,0.26-1.34-0.45
		c-0.22-0.67,0.15-1.15,0.73-1.4c1.25-0.55,2.59-0.64,3.93-0.67c2.43-0.06,4.81,0.24,7.03,1.31c2.02,0.97,3.49,2.47,3.86,4.87
		c0.41,2.65-1.06,5.3-3.63,6.5c-2.61,1.22-5.34,1.35-8.12,0.86c-1.1-0.2-1.48-0.74-1.56-1.92c0-0.06,0-0.13,0-0.19V143.56
		L141.79,143.56z"/>
	<path style="fill:#010202;" d="M179.9,148.9c-0.73-0.02-1.3-0.39-1.83-0.87c-0.98-0.88-1.72-1.97-2.41-3.1
		c-1.43-2.37-2.58-4.88-3.55-7.48c-0.16-0.44-0.33-0.88-0.2-1.36c0.14-0.5,0.39-0.91,0.95-0.97c0.55-0.06,0.8,0.31,0.97,0.78
		c0.6,1.65,1.26,3.28,2.02,4.86c0.75,1.58,1.53,3.16,2.63,4.51c1.06,1.3,1.77,1.33,2.81,0.03c1.68-2.09,2.73-4.57,3.78-7.03
		c0.34-0.79,0.61-1.61,0.94-2.41c0.18-0.45,0.46-0.82,1-0.73c0.54,0.09,0.81,0.48,0.91,1.01c0.06,0.34,0.04,0.68-0.08,1.01
		c-1.25,3.36-2.72,6.61-4.82,9.5c-0.45,0.62-0.96,1.18-1.57,1.65C180.99,148.65,180.49,148.91,179.9,148.9L179.9,148.9z"/>
	<path style="fill:#010202;" d="M192.42,142.12c0,1.77,0.01,3.53,0,5.3c0,1.02-0.37,1.49-1.08,1.47c-0.69-0.02-1.08-0.54-1.08-1.51
		c0-3.56,0-7.13,0-10.69c0-0.98,0.39-1.51,1.07-1.53c0.7-0.02,1.1,0.52,1.11,1.57C192.43,138.53,192.42,140.33,192.42,142.12
		L192.42,142.12z"/>
	<path style="fill:#010202;" d="M197.84,144.3c0,0.25,0.04,0.49,0.08,0.7c0.31,1.19,1.35,2.01,2.58,2.01c1.82,0,2.87-1.48,2.87-3.65
		c0-1.89-1-3.51-2.81-3.51c-1.17,0-2.26,0.84-2.6,2.13c-0.06,0.21-0.12,0.47-0.12,0.7V144.3L197.84,144.3z M196.14,141.78
		c0-1.21-0.04-2.19-0.08-3.08h1.54l0.08,1.62h0.04c0.7-1.15,1.82-1.84,3.36-1.84c2.28,0,4,1.93,4,4.8c0,3.4-2.07,5.08-4.3,5.08
		c-1.25,0-2.34-0.55-2.91-1.48h-0.04v5.13h-1.7V141.78L196.14,141.78z"/>
	<polygon style="fill:#010202;" points="207.25,148.15 208.97,148.15 208.97,134.28 207.25,134.28 207.25,148.15 	"/>
	<path style="fill:#010202;" d="M216.83,143.32c-1.87-0.04-4,0.29-4,2.13c0,1.11,0.74,1.64,1.62,1.64c1.23,0,2.01-0.78,2.28-1.58
		c0.06-0.18,0.1-0.37,0.1-0.55V143.32L216.83,143.32z M217.09,148.15l-0.14-1.19h-0.06c-0.53,0.74-1.54,1.41-2.89,1.41
		c-1.91,0-2.89-1.35-2.89-2.71c0-2.28,2.03-3.53,5.68-3.51v-0.2c0-0.78-0.21-2.19-2.15-2.19c-0.88,0-1.8,0.27-2.46,0.7l-0.39-1.13
		c0.78-0.51,1.91-0.84,3.1-0.84c2.89,0,3.59,1.97,3.59,3.87v3.53c0,0.82,0.04,1.62,0.16,2.26H217.09L217.09,148.15z"/>
	<path style="fill:#010202;" d="M223.26,135.98v2.71h2.46V140h-2.46v5.1c0,1.17,0.33,1.84,1.29,1.84c0.45,0,0.78-0.06,1-0.12
		l0.08,1.29c-0.33,0.14-0.86,0.23-1.52,0.23c-0.8,0-1.44-0.25-1.85-0.72c-0.49-0.51-0.66-1.35-0.66-2.46V140h-1.46v-1.31h1.46v-2.26
		L223.26,135.98L223.26,135.98z"/>
	<path style="fill:#010202;" d="M232.63,143.32c-1.87-0.04-4,0.29-4,2.13c0,1.11,0.74,1.64,1.62,1.64c1.23,0,2.01-0.78,2.28-1.58
		c0.06-0.18,0.1-0.37,0.1-0.55V143.32L232.63,143.32z M232.88,148.15l-0.14-1.19h-0.06c-0.53,0.74-1.54,1.41-2.89,1.41
		c-1.91,0-2.89-1.35-2.89-2.71c0-2.28,2.03-3.53,5.68-3.51v-0.2c0-0.78-0.21-2.19-2.15-2.19c-0.88,0-1.8,0.27-2.46,0.7l-0.39-1.13
		c0.78-0.51,1.91-0.84,3.1-0.84c2.89,0,3.59,1.97,3.59,3.87v3.53c0,0.82,0.04,1.62,0.16,2.26H232.88L232.88,148.15z"/>
	<path style="fill:#010202;" d="M189.7,133.02c-0.23,0.25-0.63,0.27-0.88,0.04c-0.25-0.23-0.27-0.63-0.04-0.88
		c0.01-0.01,3.75-4.1,10.54-8.47c1.73-1.11,3.59-2.24,5.52-3.31c1.93-1.07,3.93-2.07,5.95-2.92l0.81-0.35c1.73-0.74,3.41-1.47,5-1.5
		c2.25-0.05,4.72,0.66,6.89,1.53c2.14,0.86,3.99,1.88,5.03,2.48l0,0c0.13,0.08,0.27,0.17,0.4,0.28c0-0.01-0.01-0.03-0.01-0.04
		c-0.03-0.16-0.06-0.28-0.08-0.39c-0.01-0.08-0.01-0.17,0-0.27c0.03-0.26,0.16-0.7,0.48-1.09c0.32-0.38,0.82-0.73,1.59-0.83
		c0.29-0.04,0.62-0.04,0.99,0c0.89,0.1,1.78,0.06,2.62,0.02c0.88-0.04,1.71-0.08,2.48,0.03l0.05,0.01c0.54,0.07,2.31,0.31,2.02,2.46
		l0,0.02c-0.07,0.41-0.24,1.29-0.44,2.27c-0.26,1.34-0.57,2.87-0.67,3.55c0,0.01,0,0.02,0,0.03c0,0.01,0.01,0.02,0.01,0.02
		c0.24,0.18,0.63,0.44,1.09,0.76c2.7,1.84,7.93,5.41,7.96,8.78c0,0.21-0.01,0.4-0.03,0.6c-0.2,1.61-1.23,2.62-2.63,3.23
		c-1.29,0.56-2.89,0.76-4.4,0.77c-0.67,0-1.32-0.03-1.92-0.09c0.09,1.33,0.46,4.23,3.55,8.34l0.01,0.01
		c1.65,2.3,2.42,4.57,2.33,6.77c-0.09,2.23-1.06,4.37-2.88,6.37l-0.03,0.03c-1.79,1.71-3.86,2.96-6.35,3.66
		c-2.47,0.7-5.35,0.85-8.8,0.39c-0.23-0.03-0.47-0.05-0.7-0.06c-0.22-0.01-0.45,0-0.66,0.01c-0.35,0.06-0.76,0.15-1.22,0.25
		c-2.55,0.56-6.71,1.48-13.68-0.36c-0.39,0.07-1.06,0.19-1.88,0.28c-0.94,0.11-2.13,0.2-3.43,0.2c-1.11-0.01-2.34-0.18-3.6-0.5
		c-2.37-0.62-4.85-1.8-6.73-3.56c-1.92-1.79-3.24-4.18-3.21-7.16c0.01-0.86,0.12-1.77,0.37-2.73c0.09-0.33,0.42-0.53,0.76-0.45
		c0.33,0.09,0.53,0.42,0.45,0.76c-0.22,0.86-0.33,1.66-0.33,2.42c-0.02,2.59,1.13,4.67,2.82,6.24c1.73,1.61,4.01,2.7,6.2,3.27
		c1.16,0.3,2.29,0.46,3.3,0.46c1.23,0.01,2.36-0.08,3.28-0.19c0.93-0.11,1.61-0.23,1.94-0.3l0.14-0.03l0.13,0.04
		c6.77,1.81,10.78,0.93,13.23,0.39c0.49-0.11,0.93-0.2,1.32-0.27l0.04,0c0.28-0.03,0.56-0.03,0.84-0.02
		c0.28,0.01,0.55,0.04,0.82,0.07c3.27,0.44,5.99,0.29,8.3-0.36c2.28-0.64,4.18-1.79,5.83-3.35c1.6-1.78,2.46-3.64,2.54-5.56
		c0.08-1.92-0.61-3.92-2.1-6l0,0c-3.54-4.71-3.73-7.99-3.81-9.28c-0.01-0.12-0.01-0.23-0.02-0.28c-0.01-0.1,0-0.2,0.03-0.29v0
		c0.04-0.14,0.13-0.27,0.24-0.36c0.11-0.09,0.25-0.15,0.4-0.16c0.08-0.01,0.16,0,0.23,0.01c0.68,0.08,1.47,0.14,2.28,0.13
		c1.36-0.01,2.79-0.18,3.91-0.67c1.01-0.44,1.75-1.15,1.89-2.24c0.02-0.14,0.03-0.28,0.02-0.43c-0.02-2.71-4.9-6.04-7.42-7.76
		c-0.47-0.32-0.86-0.59-1.16-0.81l-0.02-0.01c-0.18-0.15-0.31-0.34-0.39-0.54c-0.08-0.21-0.1-0.43-0.07-0.66
		c0.12-0.78,0.42-2.27,0.68-3.59c0.2-1,0.37-1.89,0.43-2.24c0.11-0.9-0.71-1.01-0.96-1.05c-0.06-0.01,0,0-0.06-0.01
		c-0.67-0.1-1.43-0.06-2.25-0.02c-0.9,0.04-1.84,0.09-2.82-0.03c-0.27-0.03-0.49-0.03-0.68,0c-0.4,0.05-0.65,0.22-0.8,0.4
		c-0.14,0.17-0.19,0.34-0.2,0.43c0.01,0.05,0.03,0.15,0.06,0.26c0.14,0.63,0.35,1.61-0.12,1.96c-0.53,0.39-1.08-0.05-1.62-0.49
		c-0.18-0.15-0.37-0.29-0.48-0.36h0c-1.01-0.58-2.8-1.57-4.87-2.4c-2.04-0.82-4.35-1.48-6.4-1.44c-1.34,0.03-2.92,0.71-4.53,1.4
		c-0.16,0.07-0.32,0.14-0.82,0.35c-1.96,0.83-3.93,1.81-5.83,2.86c-1.9,1.05-3.74,2.17-5.45,3.27
		C193.34,129.03,189.71,133.01,189.7,133.02L189.7,133.02z M229.22,120.32c-0.02,0.18-0.1,0.36,0.06,0.24
		C229.36,120.5,229.31,120.42,229.22,120.32L229.22,120.32z M230.07,119.32L230.07,119.32
		C230.07,119.32,230.07,119.31,230.07,119.32L230.07,119.32z M237.05,117.35C237.04,117.35,237.04,117.35,237.05,117.35
		L237.05,117.35L237.05,117.35z"/>
</g>
</svg>
